<?xml version="1.0" encoding="UTF-8"?>
<!-- Generator: visioncortex VTracer 0.6.3 -->
<svg version="1.1" xmlns="http://www.w3.org/2000/svg" width="1280" height="1280">
<path d="M0 0 C422.4 0 844.8 0 1280 0 C1280 422.4 1280 844.8 1280 1280 C857.6 1280 435.2 1280 0 1280 C0 857.6 0 435.2 0 0 Z " fill="#007BB8" transform="translate(0,0)"/>
<path d="M0 0 C0.97 0.12 1.94 0.25 2.94 0.37 C25.72 3.36 47.16 9.3 68 19 C68.7 19.32 69.39 19.64 70.11 19.97 C84.89 26.87 98.77 35.15 111 46 C111.77 46.68 111.77 46.68 112.57 47.38 C129.76 62.65 143.76 79.96 155 100 C155.35 100.61 155.69 101.21 156.05 101.84 C171.95 129.93 180.49 161.5 184.66 193.36 C184.86 194.95 185.07 196.54 185.29 198.12 C187.78 216.85 187.27 235.76 187.23 254.61 C187.22 259.7 187.23 264.79 187.23 269.88 C187.23 278.67 187.22 287.47 187.21 296.26 C187.2 308.98 187.19 321.69 187.19 334.41 C187.18 355.05 187.17 375.68 187.15 396.32 C187.13 416.35 187.12 436.39 187.11 456.42 C187.11 458.27 187.11 458.27 187.11 460.17 C187.11 466.37 187.1 472.58 187.1 478.79 C187.08 530.19 187.04 581.6 187 633 C162.52 633.02 138.04 633.04 113.57 633.05 C102.2 633.06 90.84 633.06 79.47 633.08 C69.57 633.09 59.67 633.09 49.77 633.09 C44.52 633.1 39.27 633.1 34.03 633.11 C29.1 633.11 24.16 633.11 19.23 633.11 C17.41 633.11 15.6 633.12 13.78 633.12 C11.32 633.12 8.85 633.12 6.38 633.12 C5.65 633.12 4.93 633.13 4.18 633.13 C-0.77 633.11 -0.77 633.11 -3 632 C-3 631.28 -3 630.55 -3 629.81 C-3.06 586.83 -3.14 543.86 -3.23 500.89 C-3.24 495.72 -3.25 490.55 -3.26 485.38 C-3.27 483.84 -3.27 483.84 -3.27 482.26 C-3.3 465.64 -3.33 449.02 -3.35 432.39 C-3.37 415.31 -3.41 398.23 -3.45 381.16 C-3.48 370.63 -3.49 360.11 -3.5 349.58 C-3.5 342.35 -3.52 335.12 -3.55 327.88 C-3.56 323.72 -3.57 319.56 -3.57 315.39 C-3.55 298.75 -3.82 282.45 -6.67 266 C-7.11 263.32 -7.43 260.63 -7.75 257.94 C-12.23 232.5 -25.57 204.66 -46.69 189.01 C-52.81 184.96 -59.2 181.74 -66 179 C-66.88 178.64 -67.75 178.28 -68.66 177.91 C-96.64 167.5 -129.89 170.47 -157 182 C-166.51 186.42 -175.21 191.95 -183 199 C-184.23 200.09 -184.23 200.09 -185.48 201.2 C-210.98 225.12 -220.08 262.31 -222 296 C-222.14 300.79 -222.15 305.57 -222.16 310.36 C-222.16 311.76 -222.17 313.16 -222.17 314.56 C-222.19 318.37 -222.19 322.19 -222.2 326 C-222.21 330.13 -222.22 334.25 -222.24 338.38 C-222.26 345.51 -222.28 352.65 -222.29 359.79 C-222.31 370.1 -222.34 380.42 -222.37 390.74 C-222.42 407.48 -222.46 424.22 -222.5 440.96 C-222.54 457.22 -222.58 473.48 -222.63 489.73 C-222.63 491.24 -222.63 491.24 -222.64 492.77 C-222.65 497.81 -222.66 502.84 -222.68 507.87 C-222.79 549.58 -222.9 591.29 -223 633 C-246.56 633.02 -270.13 633.04 -293.69 633.05 C-304.64 633.06 -315.58 633.06 -326.52 633.08 C-336.05 633.09 -345.58 633.09 -355.12 633.09 C-360.17 633.1 -365.22 633.1 -370.27 633.11 C-375.02 633.11 -379.77 633.11 -384.52 633.11 C-386.26 633.11 -388.01 633.12 -389.76 633.12 C-392.13 633.12 -394.51 633.12 -396.89 633.12 C-397.59 633.12 -398.28 633.13 -399 633.13 C-403.77 633.11 -403.77 633.11 -406 632 C-406.05 573.7 -406.1 515.39 -406.13 457.09 C-406.13 456.23 -406.13 455.36 -406.13 454.48 C-406.14 435.74 -406.15 417 -406.15 398.26 C-406.16 389.07 -406.16 379.88 -406.16 370.69 C-406.17 369.78 -406.17 368.86 -406.17 367.92 C-406.18 338.26 -406.2 308.59 -406.23 278.93 C-406.26 248.46 -406.28 217.99 -406.28 187.52 C-406.28 183.22 -406.28 178.92 -406.28 174.62 C-406.28 173.77 -406.29 172.93 -406.29 172.06 C-406.29 158.41 -406.3 144.76 -406.32 131.12 C-406.34 117.41 -406.34 103.71 -406.34 90 C-406.34 81.85 -406.34 73.7 -406.36 65.55 C-406.37 59.48 -406.37 53.41 -406.36 47.33 C-406.36 44.87 -406.37 42.4 -406.37 39.93 C-406.39 36.6 -406.38 33.26 -406.37 29.93 C-406.38 28.95 -406.38 27.98 -406.39 26.98 C-406.39 26.09 -406.38 25.21 -406.37 24.3 C-406.37 23.53 -406.37 22.77 -406.37 21.98 C-405.89 19.43 -405.06 18.55 -403 17 C-399.84 16.63 -399.84 16.63 -395.84 16.64 C-395.11 16.64 -394.38 16.63 -393.62 16.63 C-391.16 16.63 -388.69 16.64 -386.23 16.66 C-384.46 16.66 -382.7 16.66 -380.94 16.66 C-376.14 16.66 -371.35 16.67 -366.55 16.7 C-361.54 16.71 -356.53 16.72 -351.52 16.72 C-342.04 16.73 -332.55 16.75 -323.06 16.78 C-312.26 16.82 -301.46 16.83 -290.66 16.85 C-268.44 16.88 -246.22 16.93 -224 17 C-222.51 19.98 -222.82 23.03 -222.79 26.3 C-222.78 27.05 -222.77 27.8 -222.76 28.57 C-222.73 31.06 -222.71 33.55 -222.68 36.04 C-222.66 37.76 -222.64 39.49 -222.62 41.21 C-222.57 45.75 -222.52 50.29 -222.47 54.83 C-222.42 59.46 -222.36 64.09 -222.31 68.73 C-222.2 77.82 -222.1 86.91 -222 96 C-221.34 96 -220.68 96 -220 96 C-218.78 94.6 -218.78 94.6 -217.6 92.74 C-217.13 92.04 -216.66 91.34 -216.17 90.62 C-215.66 89.86 -215.15 89.1 -214.62 88.31 C-209.48 80.85 -204.01 74.16 -197.67 67.7 C-195.85 65.85 -194.07 63.97 -192.29 62.1 C-173.99 43.09 -152.75 29.27 -129 18 C-127.64 17.33 -127.64 17.33 -126.26 16.64 C-87.46 -2 -42.22 -5.57 0 0 Z " fill="#FAFDFF" transform="translate(914,468)"/>
<path d="M0 0 C1.15 -0 1.15 -0 2.32 -0.01 C4.9 -0.01 7.47 0 10.05 0.02 C11.89 0.02 13.73 0.02 15.57 0.02 C20.59 0.02 25.59 0.04 30.6 0.06 C35.84 0.08 41.07 0.08 46.3 0.08 C56.22 0.09 66.13 0.11 76.04 0.14 C87.33 0.18 98.61 0.19 109.89 0.21 C133.11 0.24 156.32 0.29 179.54 0.36 C180.7 2.67 180.66 3.97 180.66 6.55 C180.67 7.43 180.67 8.32 180.67 9.23 C180.67 10.21 180.67 11.19 180.66 12.2 C180.66 13.23 180.67 14.27 180.67 15.34 C180.67 18.87 180.66 22.39 180.66 25.91 C180.66 28.45 180.66 30.98 180.66 33.51 C180.66 39.05 180.66 44.58 180.66 50.11 C180.65 58.33 180.65 66.56 180.65 74.78 C180.66 88.62 180.65 102.45 180.65 116.28 C180.64 129.99 180.64 143.69 180.63 157.39 C180.63 158.24 180.63 159.09 180.63 159.97 C180.63 164.29 180.63 168.61 180.63 172.94 C180.63 203.57 180.62 234.21 180.62 264.84 C180.61 294.61 180.6 324.37 180.59 354.14 C180.59 355.06 180.59 355.98 180.59 356.92 C180.59 366.13 180.59 375.34 180.59 384.55 C180.59 403.31 180.59 422.07 180.58 440.83 C180.58 442.13 180.58 442.13 180.58 443.45 C180.57 501.09 180.56 558.72 180.54 616.36 C155.93 616.38 131.32 616.4 106.72 616.41 C95.29 616.42 83.87 616.42 72.44 616.44 C62.49 616.45 52.53 616.45 42.58 616.45 C37.3 616.46 32.03 616.46 26.75 616.47 C21.79 616.47 16.84 616.48 11.88 616.47 C10.05 616.47 8.23 616.48 6.4 616.48 C3.92 616.48 1.44 616.48 -1.04 616.48 C-1.77 616.48 -2.5 616.49 -3.26 616.49 C-8.23 616.47 -8.23 616.47 -10.46 615.36 C-10.51 557.06 -10.56 498.75 -10.59 440.45 C-10.59 439.59 -10.59 438.72 -10.59 437.84 C-10.6 419.1 -10.61 400.36 -10.61 381.62 C-10.62 372.43 -10.62 363.24 -10.62 354.05 C-10.63 353.14 -10.63 352.22 -10.63 351.28 C-10.64 321.62 -10.66 291.96 -10.69 262.29 C-10.72 231.82 -10.74 201.35 -10.74 170.88 C-10.74 166.58 -10.74 162.28 -10.74 157.98 C-10.74 157.13 -10.75 156.29 -10.75 155.42 C-10.75 141.77 -10.76 128.13 -10.78 114.48 C-10.8 100.77 -10.8 87.07 -10.8 73.37 C-10.8 65.21 -10.8 57.06 -10.82 48.91 C-10.83 42.84 -10.83 36.77 -10.82 30.69 C-10.82 28.23 -10.83 25.76 -10.83 23.29 C-10.85 19.96 -10.84 16.62 -10.83 13.29 C-10.84 12.31 -10.84 11.34 -10.85 10.34 C-10.85 9.45 -10.84 8.57 -10.83 7.66 C-10.83 6.89 -10.83 6.13 -10.83 5.34 C-9.74 -0.47 -4.9 -0.06 0 0 Z " fill="#FAFDFF" transform="translate(205.4600067138672,484.6392364501953)"/>
<path d="M0 0 C0.69 0.21 1.37 0.43 2.08 0.65 C31.94 10.27 54.78 31.29 69 59 C82.09 85.9 84.75 119.55 75.05 148.02 C70.4 160.89 64.1 172.72 55 183 C54.28 183.84 53.56 184.68 52.81 185.55 C34.63 206.35 10.45 219.44 -17 223 C-32.88 224.06 -48.77 223.93 -64 219 C-64.7 218.78 -65.4 218.55 -66.12 218.32 C-94.61 208.88 -119.04 189.05 -132.92 162.35 C-141.09 146.03 -145.41 128.97 -145.31 110.69 C-145.31 109.6 -145.3 108.51 -145.3 107.38 C-145.18 98.9 -144.27 91.2 -142 83 C-141.73 81.95 -141.47 80.89 -141.19 79.8 C-133.21 50.91 -114.05 25.84 -88 11 C-87.36 10.63 -86.72 10.27 -86.06 9.89 C-76.17 4.35 -66.02 0.63 -55 -2 C-54.25 -2.19 -53.5 -2.37 -52.73 -2.56 C-35.69 -6.41 -16.6 -5.25 0 0 Z " fill="#FAFDFF" transform="translate(322,181)"/>
</svg>
